<?xml version="1.0" encoding="UTF-8" standalone="no"?>
<svg
   xmlns:dc="http://purl.org/dc/elements/1.1/"
   xmlns:cc="http://creativecommons.org/ns#"
   xmlns:rdf="http://www.w3.org/1999/02/22-rdf-syntax-ns#"
   xmlns:svg="http://www.w3.org/2000/svg"
   xmlns="http://www.w3.org/2000/svg"
   xmlns:sodipodi="http://sodipodi.sourceforge.net/DTD/sodipodi-0.dtd"
   xmlns:inkscape="http://www.inkscape.org/namespaces/inkscape"
   width="324.93442mm"
   height="42.312885mm"
   viewBox="0 0 324.93442 42.312885"
   version="1.1"
   id="svg8"
   inkscape:version="1.0.1 (1.0.1+r73)"
   sodipodi:docname="react-bulma-ts-logo.svg">
  <defs
     id="defs2">
    <rect
       x="66.357788"
       y="64.976624"
       width="317.41342"
       height="56.327667"
       id="rect861" />
    <rect
       x="61.408966"
       y="61.42823"
       width="122.72517"
       height="36.727871"
       id="rect851" />
  </defs>
  <sodipodi:namedview
     id="base"
     pagecolor="#ffffff"
     bordercolor="#666666"
     borderopacity="1.0"
     inkscape:pageopacity="0.0"
     inkscape:pageshadow="2"
     inkscape:zoom="0.66418629"
     inkscape:cx="478.67222"
     inkscape:cy="395.74898"
     inkscape:document-units="mm"
     inkscape:current-layer="layer1"
     inkscape:document-rotation="0"
     showgrid="false"
     fit-margin-top="0"
     fit-margin-left="0"
     fit-margin-right="0"
     fit-margin-bottom="0"
     inkscape:window-width="1920"
     inkscape:window-height="1026"
     inkscape:window-x="0"
     inkscape:window-y="28"
     inkscape:window-maximized="1" />
  <metadata
     id="metadata5">
    <rdf:RDF>
      <cc:Work
         rdf:about="">
        <dc:format>image/svg+xml</dc:format>
        <dc:type
           rdf:resource="http://purl.org/dc/dcmitype/StillImage" />
        <dc:title />
      </cc:Work>
    </rdf:RDF>
  </metadata>
  <g
     inkscape:label="レイヤー 1"
     inkscape:groupmode="layer"
     id="layer1"
     transform="translate(-17.512071,-17.73469)">
    <path
       style="fill:#00d1b2;fill-opacity:1;stroke:none;stroke-width:0.265;stroke-linecap:butt;stroke-linejoin:miter;stroke-miterlimit:4;stroke-dasharray:none;stroke-opacity:1"
       d="M 30.666651,17.73469 20.023038,28.191867 17.512071,46.778017 30.720349,60.047575 46.505698,49.472558 36.032069,38.945482 43.897896,31.00103 Z"
       id="path847"
       sodipodi:nodetypes="cccccccc" />
    <text
       xml:space="preserve"
       id="text849"
       style="font-style:normal;font-weight:normal;font-size:50.8px;line-height:1.25;font-family:sans-serif;white-space:pre;shape-inside:url(#rect851);fill:#000000;fill-opacity:1;stroke:none;"><tspan
         style="visibility:hidden"
         x="61.408203"
         y="149.21025"><tspan
           dx="0 17.425293 18.59111 14.151077 21.91494 17.375687"
           style="font-size:25.4px">BULMA
</tspan></tspan></text>
    <g
       aria-label="React BULMA TS"
       transform="translate(-6.6203581,-53.009913)"
       id="text859"
       style="font-style:normal;font-weight:normal;font-size:42.6861px;line-height:1.25;font-family:sans-serif;white-space:pre;shape-inside:url(#rect861);fill:#000000;fill-opacity:1;stroke:none">
      <path
         d="M 68.918588,106.12596 V 78.379998 q 0,-0.682978 0.512233,-1.195211 0.512233,-0.512233 1.280583,-0.512233 h 8.451848 q 10.116606,0 10.116606,8.921395 0,3.50026 -1.5367,5.634565 -1.494014,2.134305 -4.05518,2.902655 l 5.59188,10.372721 q 0.21343,0.25612 0.21343,0.68298 0,1.06715 -1.109839,2.00625 -1.109838,0.8964 -2.347735,0.8964 -1.237897,0 -1.920875,-1.32327 L 78.053413,94.984891 h -3.585632 v 11.141069 q 0,0.81104 -0.811036,1.28059 -0.811036,0.46954 -1.963561,0.46954 -1.109838,0 -1.96356,-0.46954 -0.811036,-0.46955 -0.811036,-1.28059 z m 5.549193,-15.495051 h 4.695471 q 4.567413,0 4.567413,-4.524727 0,-4.567413 -4.567413,-4.567413 h -4.695471 z"
         style="font-style:normal;font-variant:normal;font-weight:bold;font-stretch:normal;font-size:42.6861px;font-family:'Terminal Dosis';-inkscape-font-specification:'Terminal Dosis Bold'"
         id="path843" />
      <path
         d="m 91.542164,99.509617 v -3.628318 q 0,-3.50026 2.73191,-6.01874 2.73191,-2.51848 6.616346,-2.51848 3.62832,0 6.18948,2.305049 2.60386,2.262364 2.60386,5.719938 0,1.280583 -0.34149,2.134305 -0.29881,0.811036 -0.98178,1.152524 -0.64029,0.341489 -1.19521,0.426861 -0.55492,0.08537 -1.45133,0.08537 h -8.665279 v 0.640291 q 0,1.8355 1.365955,2.98803 1.365955,1.10984 3.628314,1.10984 1.62208,0 3.20146,-0.81104 1.57939,-0.81104 2.04893,-0.81104 0.89641,0 1.49402,0.85373 0.5976,0.81103 0.5976,1.57938 0,1.19521 -2.17699,2.39042 -2.1343,1.15253 -5.33576,1.15253 -4.567413,0 -7.470068,-2.39042 -2.859968,-2.43311 -2.859968,-6.360233 z m 5.506507,-3.585632 h 6.232169 q 0.68298,0 0.9391,-0.21343 0.2988,-0.256117 0.2988,-0.939095 0,-1.494013 -1.10984,-2.433107 -1.06715,-0.939095 -2.64654,-0.939095 -1.494012,0 -2.603851,0.939095 -1.109838,0.896408 -1.109838,2.390421 z"
         style="font-style:normal;font-variant:normal;font-weight:bold;font-stretch:normal;font-size:42.6861px;font-family:'Terminal Dosis';-inkscape-font-specification:'Terminal Dosis Bold'"
         id="path845" />
      <path
         d="m 111.77534,102.58302 q 0,-3.457577 2.56117,-4.866219 2.56117,-1.408641 7.3847,-1.408641 h 1.75013 v -0.554919 q 0,-1.579386 -0.9391,-2.731911 -0.89641,-1.195211 -2.81728,-1.195211 -1.92088,0 -3.28683,0.682978 -1.36596,0.640292 -1.57939,0.640292 -0.85372,0 -1.36595,-0.853722 -0.51223,-0.853722 -0.51223,-1.878189 0,-1.237897 2.17699,-2.134305 2.21967,-0.939094 4.65278,-0.939094 4.65279,0 6.91515,2.390422 2.26236,2.347735 2.26236,5.933367 v 10.458092 q 0,0.72567 -0.76835,1.2379 -0.76835,0.51223 -1.92087,0.51223 -1.06715,0 -1.79282,-0.51223 -0.68298,-0.51223 -0.68298,-1.2379 v -1.23789 q -2.94534,3.3722 -6.48828,3.3722 -2.43311,0 -4.0125,-1.45133 -1.5367,-1.45133 -1.5367,-4.22592 z m 5.50651,-0.72567 q 0,1.15253 0.59761,1.75013 0.64029,0.55492 1.66475,0.55492 1.36596,0 2.64654,-1.28058 1.28059,-1.28058 1.28059,-2.81728 v -0.896411 h -0.6403 q -2.60385,0 -4.09786,0.554919 -1.45133,0.512232 -1.45133,2.134302 z"
         style="font-style:normal;font-variant:normal;font-weight:bold;font-stretch:normal;font-size:42.6861px;font-family:'Terminal Dosis';-inkscape-font-specification:'Terminal Dosis Bold'"
         id="path848" />
      <path
         d="m 132.39267,99.509617 v -3.414888 q 0,-3.927121 2.30505,-6.317542 2.30505,-2.433108 6.91515,-2.433108 2.90266,0 4.86622,1.024466 1.96356,1.024467 1.96356,2.30505 0,0.896408 -0.6403,1.792816 -0.64029,0.896408 -1.53669,0.896408 -0.25612,0 -1.5367,-0.597605 -1.2379,-0.597606 -2.68923,-0.597606 -4.14055,0 -4.14055,3.927121 v 3.414888 q 0,3.927123 4.18324,3.927123 1.45132,0 2.68922,-0.64029 1.2379,-0.64029 1.57939,-0.64029 1.02446,0 1.66476,0.85372 0.68297,0.85372 0.68297,1.75013 0,1.32327 -2.09162,2.43311 -2.04893,1.06715 -4.95158,1.06715 -4.65279,0 -6.95784,-2.39042 -2.30505,-2.39043 -2.30505,-6.360233 z"
         style="font-style:normal;font-variant:normal;font-weight:bold;font-stretch:normal;font-size:42.6861px;font-family:'Terminal Dosis';-inkscape-font-specification:'Terminal Dosis Bold'"
         id="path850" />
      <path
         d="M 151.55865,100.96094 V 80.258186 q 0,-0.725663 0.85372,-1.19521 0.85373,-0.512234 1.87819,-0.512234 1.10984,0 1.92088,0.512234 0.85372,0.469547 0.85372,1.19521 v 7.34201 h 5.03696 q 0.64029,0 1.02447,0.597605 0.38417,0.597605 0.38417,1.408641 0,0.811036 -0.38417,1.408642 -0.38418,0.597605 -1.02447,0.597605 h -5.03696 v 9.348251 q 0,1.2379 0.51223,1.75013 0.55492,0.51224 1.87819,0.51224 h 1.66476 q 1.10984,0 1.70744,0.68298 0.64029,0.68297 0.64029,1.62207 0,0.98178 -0.64029,1.66476 -0.5976,0.68297 -1.70744,0.68297 h -1.66476 q -7.89693,0 -7.89693,-6.91515 z"
         style="font-style:normal;font-variant:normal;font-weight:bold;font-stretch:normal;font-size:42.6861px;font-family:'Terminal Dosis';-inkscape-font-specification:'Terminal Dosis Bold'"
         id="path852" />
      <path
         d="M 175.37737,106.16865 V 78.422684 q 0,-0.811036 0.72567,-1.280583 0.72566,-0.469547 1.70744,-0.469547 h 8.23842 q 8.5799,0 8.5799,7.512754 0,5.207704 -3.62831,6.787089 2.17699,0.853722 3.28683,2.433108 1.10983,1.5367 1.10983,4.524727 v 0.896408 q 0,4.73816 -2.30504,6.91515 -2.30505,2.1343 -6.23218,2.1343 h -9.04945 q -1.06715,0 -1.75013,-0.51223 -0.68298,-0.51223 -0.68298,-1.19521 z m 5.50651,-3.15877 h 4.82353 q 4.14055,0 4.14055,-4.652787 v -0.682978 q 0,-2.390421 -1.06715,-3.457574 -1.02447,-1.067152 -3.0734,-1.067152 h -4.82353 z m 0,-14.214474 h 4.78084 q 1.66476,0 2.51848,-0.98178 0.89641,-0.98178 0.89641,-2.689224 0,-1.664758 -0.93909,-2.603852 -0.89641,-0.981781 -2.51848,-0.981781 h -4.73816 z"
         style="font-style:normal;font-variant:normal;font-weight:bold;font-stretch:normal;font-size:42.6861px;font-family:'Terminal Dosis';-inkscape-font-specification:'Terminal Dosis Bold'"
         id="path854" />
      <path
         d="M 199.23883,98.357093 V 78.379998 q 0,-0.853722 0.81104,-1.280583 0.81103,-0.426861 1.96356,-0.426861 1.15252,0 1.96356,0.426861 0.81104,0.426861 0.81104,1.280583 v 19.977095 q 0,4.908897 4.69547,4.908897 4.69547,0 4.69547,-4.908897 V 78.379998 q 0,-0.853722 0.81103,-1.280583 0.81104,-0.426861 1.96356,-0.426861 1.15253,0 1.96356,0.426861 0.81104,0.426861 0.81104,1.280583 v 19.977095 q 0,5.036957 -2.81728,7.427377 -2.7746,2.34774 -7.42738,2.34774 -4.65279,0 -7.47007,-2.34774 -2.7746,-2.34773 -2.7746,-7.427377 z"
         style="font-style:normal;font-variant:normal;font-weight:bold;font-stretch:normal;font-size:42.6861px;font-family:'Terminal Dosis';-inkscape-font-specification:'Terminal Dosis Bold'"
         id="path856" />
      <path
         d="M 224.72244,106.12596 V 78.379998 q 0,-0.853722 0.81103,-1.280583 0.81104,-0.426861 1.96356,-0.426861 1.15253,0 1.96356,0.426861 0.81104,0.426861 0.81104,1.280583 v 24.629882 h 10.41541 q 0.76835,0 1.19521,0.72566 0.46955,0.72567 0.46955,1.70745 0,0.98178 -0.46955,1.70744 -0.42686,0.72566 -1.19521,0.72566 h -13.5315 q -0.98178,0 -1.70744,-0.46954 -0.72566,-0.46955 -0.72566,-1.28059 z"
         style="font-style:normal;font-variant:normal;font-weight:bold;font-stretch:normal;font-size:42.6861px;font-family:'Terminal Dosis';-inkscape-font-specification:'Terminal Dosis Bold'"
         id="path858" />
      <path
         d="M 245.38247,106.12596 V 79.44715 q 0,-1.408641 0.76835,-2.091618 0.81104,-0.682978 2.00625,-0.682978 1.57938,0 2.4331,0.554919 0.85373,0.55492 1.87819,2.390422 l 5.25039,9.561686 5.25039,-9.561686 q 1.02447,-1.835502 1.87819,-2.390422 0.89641,-0.554919 2.4758,-0.554919 1.19521,0 1.96356,0.682978 0.81103,0.682977 0.81103,2.091618 v 26.67881 q 0,0.81104 -0.85372,1.28059 -0.81104,0.46954 -1.92087,0.46954 -1.15253,0 -1.96356,-0.46954 -0.81104,-0.46955 -0.81104,-1.28059 V 87.77094 l -4.99427,8.878709 q -0.59761,1.109838 -1.87819,1.109838 -1.2379,0 -1.83551,-1.109838 l -4.9089,-9.220198 v 18.696509 q 0,0.81104 -0.85372,1.28059 -0.81103,0.46954 -1.92087,0.46954 -1.15253,0 -1.96356,-0.46954 -0.81104,-0.46955 -0.81104,-1.28059 z"
         style="font-style:normal;font-variant:normal;font-weight:bold;font-stretch:normal;font-size:42.6861px;font-family:'Terminal Dosis';-inkscape-font-specification:'Terminal Dosis Bold'"
         id="path860" />
      <path
         d="m 273.04303,105.57104 q 0,-0.0854 0.0854,-0.42686 l 8.23841,-26.849554 q 0.25612,-0.896408 1.2379,-1.365955 1.02447,-0.512234 2.30505,-0.512234 1.28058,0 2.30505,0.512234 1.02447,0.469547 1.28058,1.365955 l 8.23842,26.849554 q 0.0854,0.34149 0.0854,0.42686 0,0.9391 -1.15252,1.62208 -1.15253,0.68297 -2.34774,0.68297 -1.57938,0 -1.87819,-1.10984 l -1.62207,-5.67725 h -9.77512 l -1.62207,5.67725 q -0.2988,1.10984 -1.87819,1.10984 -1.23789,0 -2.39042,-0.64029 -1.10984,-0.68298 -1.10984,-1.66476 z m 8.15305,-8.836019 h 7.42738 l -3.71369,-13.104633 z"
         style="font-style:normal;font-variant:normal;font-weight:bold;font-stretch:normal;font-size:42.6861px;font-family:'Terminal Dosis';-inkscape-font-specification:'Terminal Dosis Bold'"
         id="path862" />
      <path
         d="m 306.25273,79.148348 q 0,-0.981781 0.42686,-1.707444 0.46955,-0.76835 1.32327,-0.76835 h 18.05622 q 0.85372,0 1.28058,0.76835 0.46955,0.725663 0.46955,1.707444 0,1.024466 -0.46955,1.792816 -0.46955,0.725664 -1.28058,0.725664 h -6.23217 v 24.459132 q 0,0.81104 -0.85373,1.28059 -0.81103,0.46954 -1.92087,0.46954 -1.15252,0 -1.96356,-0.46954 -0.81104,-0.46955 -0.81104,-1.28059 V 81.666828 h -6.27485 q -0.81104,0 -1.28059,-0.725664 -0.46954,-0.725664 -0.46954,-1.792816 z"
         style="font-style:normal;font-variant:normal;font-weight:bold;font-stretch:normal;font-size:42.6861px;font-family:'Terminal Dosis';-inkscape-font-specification:'Terminal Dosis Bold'"
         id="path864" />
      <path
         d="m 329.04708,102.96719 q 0,-0.98178 0.72566,-1.96356 0.76835,-1.024465 1.70745,-1.024465 0.55492,0 1.23789,0.512235 0.72567,0.51223 1.36596,1.15252 0.68298,0.59761 1.92087,1.10984 1.2379,0.51223 2.73191,0.51223 2.04894,0 3.41489,-0.93909 1.36596,-0.93909 1.36596,-2.774596 0,-1.280583 -0.76835,-2.262364 -0.72567,-1.024466 -1.96356,-1.664758 -1.19521,-0.682977 -2.64654,-1.280583 -1.45133,-0.640291 -2.94534,-1.408641 -1.45133,-0.76835 -2.68923,-1.707444 -1.19521,-0.98178 -1.96356,-2.561166 -0.72566,-1.622072 -0.72566,-3.671005 0,-2.262363 0.89641,-3.969807 0.93909,-1.75013 2.47579,-2.689224 1.5367,-0.98178 3.28683,-1.408641 1.75013,-0.469548 3.71369,-0.469548 1.10984,0 2.34774,0.170745 1.23789,0.128058 2.60385,0.469547 1.40864,0.341489 2.26236,1.067152 0.89641,0.725664 0.89641,1.707444 0,0.939095 -0.5976,1.963561 -0.59761,0.98178 -1.62208,0.98178 -0.38417,0 -2.09162,-0.811036 -1.70744,-0.811035 -3.79906,-0.811035 -2.30505,0 -3.58563,0.896408 -1.2379,0.853722 -1.2379,2.390421 0,1.237897 1.02447,2.176991 1.02447,0.896408 2.51848,1.494014 1.5367,0.554919 3.28683,1.451327 1.79281,0.853722 3.28683,1.878189 1.5367,1.024466 2.56116,2.988027 1.02447,1.920874 1.02447,4.524726 0,4.439356 -2.81728,6.872466 -2.7746,2.39042 -7.34201,2.39042 -4.05518,0 -6.95784,-1.66476 -2.90265,-1.66476 -2.90265,-3.62832 z"
         style="font-style:normal;font-variant:normal;font-weight:bold;font-stretch:normal;font-size:42.6861px;font-family:'Terminal Dosis';-inkscape-font-specification:'Terminal Dosis Bold'"
         id="path866" />
    </g>
  </g>
</svg>
